<svg id="mermaid-1630576328771" width="100%" xmlns="http://www.w3.org/2000/svg" xmlns:xlink="http://www.w3.org/1999/xlink" height="874" style="max-width: 1343px;" viewBox="-20 -20 1343 874"><style>#mermaid-1630576328771{font-family:"trebuchet ms",verdana,arial,sans-serif;font-size:16px;fill:#333;}#mermaid-1630576328771 .error-icon{fill:#552222;}#mermaid-1630576328771 .error-text{fill:#552222;stroke:#552222;}#mermaid-1630576328771 .edge-thickness-normal{stroke-width:2px;}#mermaid-1630576328771 .edge-thickness-thick{stroke-width:3.5px;}#mermaid-1630576328771 .edge-pattern-solid{stroke-dasharray:0;}#mermaid-1630576328771 .edge-pattern-dashed{stroke-dasharray:3;}#mermaid-1630576328771 .edge-pattern-dotted{stroke-dasharray:2;}#mermaid-1630576328771 .marker{fill:#333333;stroke:#333333;}#mermaid-1630576328771 .marker.cross{stroke:#333333;}#mermaid-1630576328771 svg{font-family:"trebuchet ms",verdana,arial,sans-serif;font-size:16px;}#mermaid-1630576328771 g.classGroup text{fill:#9370DB;fill:#131300;stroke:none;font-family:"trebuchet ms",verdana,arial,sans-serif;font-size:10px;}#mermaid-1630576328771 g.classGroup text .title{font-weight:bolder;}#mermaid-1630576328771 .classTitle{font-weight:bolder;}#mermaid-1630576328771 .node rect,#mermaid-1630576328771 .node circle,#mermaid-1630576328771 .node ellipse,#mermaid-1630576328771 .node polygon,#mermaid-1630576328771 .node path{fill:#ECECFF;stroke:#9370DB;stroke-width:1px;}#mermaid-1630576328771 .divider{stroke:#9370DB;stroke:1;}#mermaid-1630576328771 g.clickable{cursor:pointer;}#mermaid-1630576328771 g.classGroup rect{fill:#ECECFF;stroke:#9370DB;}#mermaid-1630576328771 g.classGroup line{stroke:#9370DB;stroke-width:1;}#mermaid-1630576328771 .classLabel .box{stroke:none;stroke-width:0;fill:#ECECFF;opacity:0.5;}#mermaid-1630576328771 .classLabel .label{fill:#9370DB;font-size:10px;}#mermaid-1630576328771 .relation{stroke:#333333;stroke-width:1;fill:none;}#mermaid-1630576328771 .dashed-line{stroke-dasharray:3;}#mermaid-1630576328771 #compositionStart,#mermaid-1630576328771 .composition{fill:#333333 !important;stroke:#333333 !important;stroke-width:1;}#mermaid-1630576328771 #compositionEnd,#mermaid-1630576328771 .composition{fill:#333333 !important;stroke:#333333 !important;stroke-width:1;}#mermaid-1630576328771 #dependencyStart,#mermaid-1630576328771 .dependency{fill:#333333 !important;stroke:#333333 !important;stroke-width:1;}#mermaid-1630576328771 #dependencyStart,#mermaid-1630576328771 .dependency{fill:#333333 !important;stroke:#333333 !important;stroke-width:1;}#mermaid-1630576328771 #extensionStart,#mermaid-1630576328771 .extension{fill:#333333 !important;stroke:#333333 !important;stroke-width:1;}#mermaid-1630576328771 #extensionEnd,#mermaid-1630576328771 .extension{fill:#333333 !important;stroke:#333333 !important;stroke-width:1;}#mermaid-1630576328771 #aggregationStart,#mermaid-1630576328771 .aggregation{fill:#ECECFF !important;stroke:#333333 !important;stroke-width:1;}#mermaid-1630576328771 #aggregationEnd,#mermaid-1630576328771 .aggregation{fill:#ECECFF !important;stroke:#333333 !important;stroke-width:1;}#mermaid-1630576328771 .edgeTerminals{font-size:11px;}#mermaid-1630576328771:root{--mermaid-font-family:"trebuchet ms",verdana,arial,sans-serif;}#mermaid-1630576328771 class{fill:apa;}</style><g></g><defs><marker id="extensionStart" class="extension" refX="0" refY="7" markerWidth="190" markerHeight="240" orient="auto"><path d="M 1,7 L18,13 V 1 Z"></path></marker></defs><defs><marker id="extensionEnd" refX="19" refY="7" markerWidth="20" markerHeight="28" orient="auto"><path d="M 1,1 V 13 L18,7 Z"></path></marker></defs><defs><marker id="compositionStart" class="extension" refX="0" refY="7" markerWidth="190" markerHeight="240" orient="auto"><path d="M 18,7 L9,13 L1,7 L9,1 Z"></path></marker></defs><defs><marker id="compositionEnd" refX="19" refY="7" markerWidth="20" markerHeight="28" orient="auto"><path d="M 18,7 L9,13 L1,7 L9,1 Z"></path></marker></defs><defs><marker id="aggregationStart" class="extension" refX="0" refY="7" markerWidth="190" markerHeight="240" orient="auto"><path d="M 18,7 L9,13 L1,7 L9,1 Z"></path></marker></defs><defs><marker id="aggregationEnd" refX="19" refY="7" markerWidth="20" markerHeight="28" orient="auto"><path d="M 18,7 L9,13 L1,7 L9,1 Z"></path></marker></defs><defs><marker id="dependencyStart" class="extension" refX="0" refY="7" markerWidth="190" markerHeight="240" orient="auto"><path d="M 5,7 L9,13 L1,7 L9,1 Z"></path></marker></defs><defs><marker id="dependencyEnd" refX="19" refY="7" markerWidth="20" markerHeight="28" orient="auto"><path d="M 18,7 L9,13 L14,7 L9,1 Z"></path></marker></defs><g id="classid-CustomerSystemApplication-0" class="classGroup" transform="translate(0,35 )"><rect x="0" y="0" width="274" height="58" class=" "></rect><text y="15" x="0"><tspan x="74.5">«@SpringBootApplication»</tspan><tspan class="title" dy="10" x="67.5">CustomerSystemApplication</tspan></text><line x1="0" y1="32" y2="32" x2="274"></line><text x="5" y="42" fill="white" class="classText"></text><line x1="0" y1="37" y2="37" x2="274"></line><text x="5" y="52" fill="white" class="classText"><tspan x="5">+main() : void</tspan></text></g><g id="classid-LoadDatabase-1" class="classGroup" transform="translate(66.75,381.5 )"><rect x="0" y="0" width="289" height="77" class=" "></rect><text y="15" x="0"><tspan x="102.5">«@Configuration»</tspan><tspan dy="10" x="102.5">«@Configuration»</tspan><tspan class="title" dy="10" x="109.5">LoadDatabase</tspan></text><line x1="0" y1="41" y2="41" x2="289"></line><text x="5" y="51" fill="white" class="classText"></text><line x1="0" y1="46" y2="46" x2="289"></line><text x="5" y="61" fill="white" class="classText"><tspan x="5">+initDatabase(CustomerRepository) : CommandLineRunner</tspan><tspan x="5" dy="10">+initDatabase(ProductRepository) : CommandLineRunner</tspan></text></g><g id="classid-Customer-2" class="classGroup" transform="translate(336.5,178 )"><rect x="0" y="0" width="192" height="128" class=" "></rect><text y="15" x="0"><tspan x="72">«@Entity»</tspan><tspan class="title" dy="10" x="72.5">Customer</tspan></text><line x1="0" y1="31" y2="31" x2="192"></line><text x="5" y="41" fill="white" class="classText"><tspan x="5">+Long «@Id»</tspan><tspan x="5" dy="10">+String companyName</tspan><tspan x="5" dy="10">+String address</tspan><tspan x="5" dy="10">+String country</tspan><tspan x="5" dy="10">+Contact contact</tspan></text><line x1="0" y1="87" y2="87" x2="192"></line><text x="5" y="102" fill="white" class="classText"><tspan x="5">+Customer() : void</tspan><tspan x="5" dy="10">+Customer(String, String, String) : void</tspan><tspan x="5" dy="10">+toString() : String</tspan></text></g><g id="classid-Contact-3" class="classGroup" transform="translate(324,0 )"><rect x="0" y="0" width="217" height="128" class=" "></rect><text y="15" x="0"><tspan x="84.5">«@Entity»</tspan><tspan class="title" dy="10" x="89.5">Contact</tspan></text><line x1="0" y1="31" y2="31" x2="217"></line><text x="5" y="41" fill="white" class="classText"><tspan x="5">+Long «@Id»</tspan><tspan x="5" dy="10">+String name</tspan><tspan x="5" dy="10">+String phone</tspan><tspan x="5" dy="10">+String email</tspan><tspan x="5" dy="10">+String position</tspan></text><line x1="0" y1="87" y2="87" x2="217"></line><text x="5" y="102" fill="white" class="classText"><tspan x="5">+Contact() : void</tspan><tspan x="5" dy="10">+Contact(String, String, String, String) : void</tspan><tspan x="5" dy="10">+toString() : String</tspan></text></g><g id="classid-CustomerController-4" class="classGroup" transform="translate(555.25,356 )"><rect x="0" y="0" width="253" height="128" class=" "></rect><text y="15" x="0"><tspan x="83">«@RestController»</tspan><tspan class="title" dy="10" x="79">CustomerController</tspan></text><line x1="0" y1="31" y2="31" x2="253"></line><text x="5" y="41" fill="white" class="classText"><tspan x="5">-CustomerService customerService</tspan></text><line x1="0" y1="47" y2="47" x2="253"></line><text x="5" y="62" fill="white" class="classText"><tspan x="5">+CustomerController() : void</tspan><tspan x="5" dy="10">+createCustomer(Customer) : Customer</tspan><tspan x="5" dy="10">+getCustomers()</tspan><tspan x="5" dy="10">+getCustomerById(Long) : Customer</tspan><tspan x="5" dy="10">+updateCustomerById(Long, Customer) : Customer</tspan><tspan x="5" dy="10">+deleteCustomerById(Long) : void</tspan><tspan x="5" dy="10">+setCustomerRepository(CustomerService) : void</tspan></text></g><g id="classid-CustomerService-5" class="classGroup" transform="translate(473.5,534 )"><rect x="0" y="0" width="255" height="118" class=" "></rect><text y="15" x="0"><tspan x="99.5">«@Service»</tspan><tspan class="title" dy="10" x="85">CustomerService</tspan></text><line x1="0" y1="31" y2="31" x2="255"></line><text x="5" y="41" fill="white" class="classText"><tspan x="5">-CustomerRepository customerRepository</tspan></text><line x1="0" y1="47" y2="47" x2="255"></line><text x="5" y="62" fill="white" class="classText"><tspan x="5">+CustomerServiceImpl() : void</tspan><tspan x="5" dy="10">+createCustomer(Customer) : Customer</tspan><tspan x="5" dy="10">+getCustomerById(Long) : Customer</tspan><tspan x="5" dy="10">+deleteCustomerById(Long) : void</tspan><tspan x="5" dy="10">+updateCustomerById(Long, Customer) : Customer</tspan><tspan x="5" dy="10">+setCustomerRepository(CustomerRepository) : void</tspan></text></g><g id="classid-CustomerRepository-6" class="classGroup" transform="translate(442.75,702 )"><rect x="0" y="0" width="163" height="41" class=" "></rect><text y="15" x="0"><tspan x="55">«Interface»</tspan><tspan class="title" dy="10" x="31.5">CustomerRepository</tspan></text><line x1="0" y1="32" y2="32" x2="163"></line><text x="5" y="42" fill="white" class="classText"></text><line x1="0" y1="37" y2="37" x2="163"></line><text x="5" y="52" fill="white" class="classText"></text></g><g id="classid-JpaRepository-7" class="classGroup" transform="translate(980.25,793 )"><rect x="0" y="0" width="134" height="41" class=" "></rect><text y="15" x="0"><tspan x="40.5">«Interface»</tspan><tspan class="title" dy="10" x="31.5">JpaRepository</tspan></text><line x1="0" y1="32" y2="32" x2="134"></line><text x="5" y="42" fill="white" class="classText"></text><line x1="0" y1="37" y2="37" x2="134"></line><text x="5" y="52" fill="white" class="classText"></text></g><g id="classid-ProductSystemApplication-8" class="classGroup" transform="translate(591,35 )"><rect x="0" y="0" width="265" height="58" class=" "></rect><text y="15" x="0"><tspan x="70">«@SpringBootApplication»</tspan><tspan class="title" dy="10" x="67.5">ProductSystemApplication</tspan></text><line x1="0" y1="32" y2="32" x2="265"></line><text x="5" y="42" fill="white" class="classText"></text><line x1="0" y1="37" y2="37" x2="265"></line><text x="5" y="52" fill="white" class="classText"><tspan x="5">+main() : void</tspan></text></g><g id="classid-Product-9" class="classGroup" transform="translate(891.5,178 )"><rect x="0" y="0" width="206" height="128" class=" "></rect><text y="15" x="0"><tspan x="79">«@Entity»</tspan><tspan class="title" dy="10" x="83.5">Product</tspan></text><line x1="0" y1="31" y2="31" x2="206"></line><text x="5" y="41" fill="white" class="classText"><tspan x="5">+Long «@Id»</tspan><tspan x="5" dy="10">+String productCategory</tspan><tspan x="5" dy="10">+String name</tspan><tspan x="5" dy="10">+double price</tspan><tspan x="5" dy="10">+int stockQuantity</tspan></text><line x1="0" y1="87" y2="87" x2="206"></line><text x="5" y="102" fill="white" class="classText"><tspan x="5">+Product() : void</tspan><tspan x="5" dy="10">+Product(String, String, double, int) : void</tspan><tspan x="5" dy="10">+toString() : String</tspan></text></g><g id="classid-ProductDetail-10" class="classGroup" transform="translate(906,10 )"><rect x="0" y="0" width="177" height="108" class=" "></rect><text y="15" x="0"><tspan x="64.5">«@Entity»</tspan><tspan class="title" dy="10" x="55.5">ProductDetail</tspan></text><line x1="0" y1="31" y2="31" x2="177"></line><text x="5" y="41" fill="white" class="classText"><tspan x="5">+Long «@Id»</tspan><tspan x="5" dy="10">+String decription</tspan><tspan x="5" dy="10">+String comment</tspan></text><line x1="0" y1="67" y2="67" x2="177"></line><text x="5" y="82" fill="white" class="classText"><tspan x="5">+ProductDetail() : void</tspan><tspan x="5" dy="10">+ProductDetail(String, String) : void</tspan><tspan x="5" dy="10">+toString() : String</tspan></text></g><g id="classid-ProductController-11" class="classGroup" transform="translate(1075,356 )"><rect x="0" y="0" width="228" height="128" class=" "></rect><text y="15" x="0"><tspan x="70.5">«@RestController»</tspan><tspan class="title" dy="10" x="71">ProductController</tspan></text><line x1="0" y1="31" y2="31" x2="228"></line><text x="5" y="41" fill="white" class="classText"><tspan x="5">-ProductService ProductService</tspan></text><line x1="0" y1="47" y2="47" x2="228"></line><text x="5" y="62" fill="white" class="classText"><tspan x="5">+ProductController() : void</tspan><tspan x="5" dy="10">+createProduct(Product) : Product</tspan><tspan x="5" dy="10">+getProducts()</tspan><tspan x="5" dy="10">+getProductById(Long) : Product</tspan><tspan x="5" dy="10">+updateProductById(Long, Product) : Product</tspan><tspan x="5" dy="10">+deleteProductById(Long) : void</tspan><tspan x="5" dy="10">+setProductRepository(ProductService) : void</tspan></text></g><g id="classid-ProductService-12" class="classGroup" transform="translate(995,534 )"><rect x="0" y="0" width="239" height="118" class=" "></rect><text y="15" x="0"><tspan x="91.5">«@Service»</tspan><tspan class="title" dy="10" x="81.5">ProductService</tspan></text><line x1="0" y1="31" y2="31" x2="239"></line><text x="5" y="41" fill="white" class="classText"><tspan x="5">-ProductRepository ProductRepository</tspan></text><line x1="0" y1="47" y2="47" x2="239"></line><text x="5" y="62" fill="white" class="classText"><tspan x="5">+ProductServiceImpl() : void</tspan><tspan x="5" dy="10">+createProduct(Product) : Product</tspan><tspan x="5" dy="10">+getProductById(Long) : Product</tspan><tspan x="5" dy="10">+deleteProductById(Long) : void</tspan><tspan x="5" dy="10">+updateProductById(Long, Product) : Product</tspan><tspan x="5" dy="10">+setProductRepository(ProductRepository) : void</tspan></text></g><g id="classid-ProductRepository-13" class="classGroup" transform="translate(1003,702 )"><rect x="0" y="0" width="154" height="41" class=" "></rect><text y="15" x="0"><tspan x="50.5">«Interface»</tspan><tspan class="title" dy="10" x="31.5">ProductRepository</tspan></text><line x1="0" y1="32" y2="32" x2="154"></line><text x="5" y="42" fill="white" class="classText"></text><line x1="0" y1="37" y2="37" x2="154"></line><text x="5" y="52" fill="white" class="classText"></text></g><path d="M524.25,743L524.25,747.1666666666666C524.25,751.3333333333334,524.25,759.6666666666666,600.25,770.4451880178458C676.25,781.223709369025,828.25,794.4474187380497,904.25,801.0592734225621L980.25,807.6711281070745" id="edge0" class="relation" marker-end="url(#dependencyEnd)"></path><g class="classLabel"><rect class="box" x="641.796875" y="775.25" width="196.015625" height="16.015625"></rect><text class="label" x="739.797037331014" y="786.7521801119715" fill="red" text-anchor="middle">extends JpaRepository&lt;Customer, Long&gt;</text></g><path d="M336.5,278.94702702702705L313.9583333333333,287.62252252252256C291.4166666666667,296.298018018018,246.33333333333334,313.64900900900903,224.7373595505618,330.7411711711712C203.14138576779024,347.8333333333333,205.0327715355805,364.6666666666667,205.9784644194756,373.0833333333333L206.92415730337078,381.5" id="edge1" class="relation dashed-line" marker-start="url(#dependencyStart)"></path><g class="classLabel"><rect class="box" x="213.15625" y="302.59375" width="64.015625" height="16.015625"></rect><text class="label" x="245.1617101121106" y="314.09992562171743" fill="red" text-anchor="middle">Dependency</text></g><path d="M402.47752808988764,306L400.52294007490633,310.1666666666667C398.5683520599251,314.3333333333333,394.6591760299625,322.6666666666667,392.70458801498125,341.6666666666667C390.75,360.6666666666667,390.75,390.3333333333333,390.75,420C390.75,449.6666666666667,390.75,479.3333333333333,390.75,508.1666666666667C390.75,537,390.75,565,390.75,593C390.75,621,390.75,649,402.9752747252747,667.1666666666666C415.20054945054943,685.3333333333334,439.6510989010989,693.6666666666666,451.8763736263736,697.8333333333334L464.10164835164835,702" id="edge2" class="relation dashed-line" marker-start="url(#dependencyStart)"></path><g class="classLabel"><rect class="box" x="358.75" y="517.4375" width="64" height="16.015625"></rect><text class="label" x="390.75" y="528.9404480779642" fill="red" text-anchor="middle">Dependency</text></g><path d="M495.6011235955056,306L499.7092696629213,310.1666666666667C503.81741573033713,314.3333333333333,512.0337078651686,322.6666666666667,516.1418539325842,341.6666666666667C520.25,360.6666666666667,520.25,390.3333333333333,520.25,420C520.25,449.6666666666667,520.25,479.3333333333333,524.2554563492064,498.3333333333333C528.2609126984127,517.3333333333334,536.2718253968254,525.6666666666666,540.2772817460317,529.8333333333334L544.2827380952381,534" id="edge3" class="relation dashed-line" marker-start="url(#dependencyStart)"></path><g class="classLabel"><rect class="box" x="488.25" y="408.28125" width="64" height="16.015625"></rect><text class="label" x="520.25" y="419.7850960013322" fill="red" text-anchor="middle">Dependency</text></g><path d="M528.5,276.27883650952856L554.0416666666666,285.39903042460713C579.5833333333334,294.5192243396857,630.6666666666666,312.75961216984285,656.2083333333334,326.04647275158806C681.75,339.3333333333333,681.75,347.6666666666667,681.75,351.8333333333333L681.75,356" id="edge4" class="relation dashed-line" marker-start="url(#dependencyStart)"></path><g class="classLabel"><rect class="box" x="584.890625" y="296.328125" width="64.015625" height="16.015625"></rect><text class="label" x="616.8970410083527" y="307.8428752246475" fill="red" text-anchor="middle">Dependency</text></g><path d="M681.75,484L681.75,488.1666666666667C681.75,492.3333333333333,681.75,500.6666666666667,677.7445436507936,509C673.7390873015873,517.3333333333334,665.7281746031746,525.6666666666666,661.7227182539683,529.8333333333334L657.7172619047619,534" id="edge5" class="relation dashed-line" marker-end="url(#dependencyEnd)"></path><g class="classLabel"><rect class="box" x="637.390625" y="500.984375" width="82.015625" height="16.015625"></rect><text class="label" x="678.396417877854" y="512.488556015607" fill="red" text-anchor="middle">Has reference to</text></g><path d="M601,652L601,656.1666666666666C601,660.3333333333334,601,668.6666666666666,593.9716117216117,677C586.9432234432235,685.3333333333334,572.8864468864468,693.6666666666666,565.8580586080585,697.8333333333334L558.8296703296703,702" id="edge6" class="relation dashed-line" marker-end="url(#dependencyEnd)"></path><g class="classLabel"><rect class="box" x="549.65625" y="671.625" width="82.015625" height="16.015625"></rect><text class="label" x="590.6673413136859" y="683.1255501006813" fill="red" text-anchor="middle">Has reference to</text></g><path d="M432.5,128L432.5,132.16666666666666C432.5,136.33333333333334,432.5,144.66666666666666,432.5,153C432.5,161.33333333333334,432.5,169.66666666666666,432.5,173.83333333333334L432.5,178" id="edge7" class="relation" marker-end="url(#aggregationEnd)"></path><g class="classLabel"><rect class="box" x="403" y="141.5" width="59" height="16"></rect><text class="label" x="432.5" y="153" fill="red" text-anchor="middle">has contact</text></g><path d="M1080,743L1080,747.1666666666666C1080,751.3333333333334,1080,759.6666666666666,1077.0009157509157,768C1074.0018315018315,776.3333333333334,1068.003663003663,784.6666666666666,1065.0045787545787,788.8333333333334L1062.0054945054944,793" id="edge8" class="relation" marker-end="url(#dependencyEnd)"></path><g class="classLabel"><rect class="box" x="983.796875" y="758.84375" width="189.015625" height="16.015625"></rect><text class="label" x="1078.3050877809626" y="770.3547635409527" fill="red" text-anchor="middle">extends JpaRepository&lt;Product, Long&gt;</text></g><path d="M891.5,255.03056147832268L791.4166666666666,267.6921345652689C691.3333333333334,280.3537076522151,491.1666666666667,305.67685382610756,383.54143258426967,326.75509357972044C275.91619850187266,347.8333333333333,260.8323970037453,364.6666666666667,253.29049625468164,373.0833333333333L245.74859550561797,381.5" id="edge9" class="relation dashed-line" marker-start="url(#dependencyStart)"></path><g class="classLabel"><rect class="box" x="525.609375" y="285.765625" width="64.015625" height="16.015625"></rect><text class="label" x="557.6140464874755" y="297.27057549767545" fill="red" text-anchor="middle">Dependency</text></g><path d="M891.5,302.80928689883916L883.5416666666666,307.50773908236596C875.5833333333334,312.20619126589276,859.6666666666666,321.6030956329464,851.7083333333334,341.1348811498065C843.75,360.6666666666667,843.75,390.3333333333333,843.75,420C843.75,449.6666666666667,843.75,479.3333333333333,843.75,508.1666666666667C843.75,537,843.75,565,843.75,593C843.75,621,843.75,649,870.2916666666666,668.1117283950617C896.8333333333334,687.2234567901236,949.9166666666666,697.4469135802469,976.4583333333334,702.5586419753087L1003,707.6703703703704" id="edge10" class="relation dashed-line" marker-start="url(#dependencyStart)"></path><g class="classLabel"><rect class="box" x="811.75" y="545.859375" width="64" height="16.015625"></rect><text class="label" x="843.75" y="557.362932129525" fill="red" text-anchor="middle">Dependency</text></g><path d="M1027.2191011235955,306L1029.3492509363296,310.1666666666667C1031.4794007490636,314.3333333333333,1035.7397003745318,322.6666666666667,1037.869850187266,341.6666666666667C1040,360.6666666666667,1040,390.3333333333333,1040,420C1040,449.6666666666667,1040,479.3333333333333,1043.6954365079366,498.3333333333333C1047.390873015873,517.3333333333334,1054.781746031746,525.6666666666666,1058.4771825396826,529.8333333333334L1062.172619047619,534" id="edge11" class="relation dashed-line" marker-start="url(#dependencyStart)"></path><g class="classLabel"><rect class="box" x="1008" y="411.15625" width="64" height="16.015625"></rect><text class="label" x="1040" y="422.66917210773187" fill="red" text-anchor="middle">Dependency</text></g><path d="M1097.5,289.1311053984576L1112.75,296.1092544987146C1128,303.0874035989717,1158.5,317.04370179948586,1173.75,328.1885175664096C1189,339.3333333333333,1189,347.6666666666667,1189,351.8333333333333L1189,356" id="edge12" class="relation dashed-line" marker-start="url(#dependencyStart)"></path><g class="classLabel"><rect class="box" x="1122.609375" y="303.765625" width="64.015625" height="16.015625"></rect><text class="label" x="1154.6165361255462" y="315.2666926230006" fill="red" text-anchor="middle">Dependency</text></g><path d="M1189,484L1189,488.1666666666667C1189,492.3333333333333,1189,500.6666666666667,1185.3045634920634,509C1181.609126984127,517.3333333333334,1174.218253968254,525.6666666666666,1170.5228174603174,529.8333333333334L1166.827380952381,534" id="edge13" class="relation dashed-line" marker-end="url(#dependencyEnd)"></path><g class="classLabel"><rect class="box" x="1145.203125" y="500.640625" width="82.015625" height="16.015625"></rect><text class="label" x="1186.2078680279008" y="512.1481756463937" fill="red" text-anchor="middle">Has reference to</text></g><path d="M1114.5,652L1114.5,656.1666666666666C1114.5,660.3333333333334,1114.5,668.6666666666666,1111.3406593406594,677C1108.1813186813188,685.3333333333334,1101.8626373626373,693.6666666666666,1098.7032967032967,697.8333333333334L1095.543956043956,702" id="edge14" class="relation dashed-line" marker-end="url(#dependencyEnd)"></path><g class="classLabel"><rect class="box" x="1071.5625" y="668.03125" width="82.015625" height="16.015625"></rect><text class="label" x="1112.5744131889548" y="679.539542026161" fill="red" text-anchor="middle">Has reference to</text></g><path d="M994.5,118L994.5,123.83333333333333C994.5,129.66666666666666,994.5,141.33333333333334,994.5,151.33333333333334C994.5,161.33333333333334,994.5,169.66666666666666,994.5,173.83333333333334L994.5,178" id="edge15" class="relation" marker-end="url(#aggregationEnd)"></path><g class="classLabel"><rect class="box" x="951" y="136.5" width="87" height="16"></rect><text class="label" x="994.5" y="148" fill="red" text-anchor="middle">has ProductDetail</text></g></svg>