<svg id="mermaid-1630577573911" width="100%" xmlns="http://www.w3.org/2000/svg" xmlns:xlink="http://www.w3.org/1999/xlink" height="874" style="max-width: 793.75px;" viewBox="-20 -20 793.75 874"><style>#mermaid-1630577573911{font-family:"trebuchet ms",verdana,arial,sans-serif;font-size:16px;fill:#333;}#mermaid-1630577573911 .error-icon{fill:#552222;}#mermaid-1630577573911 .error-text{fill:#552222;stroke:#552222;}#mermaid-1630577573911 .edge-thickness-normal{stroke-width:2px;}#mermaid-1630577573911 .edge-thickness-thick{stroke-width:3.5px;}#mermaid-1630577573911 .edge-pattern-solid{stroke-dasharray:0;}#mermaid-1630577573911 .edge-pattern-dashed{stroke-dasharray:3;}#mermaid-1630577573911 .edge-pattern-dotted{stroke-dasharray:2;}#mermaid-1630577573911 .marker{fill:#333333;stroke:#333333;}#mermaid-1630577573911 .marker.cross{stroke:#333333;}#mermaid-1630577573911 svg{font-family:"trebuchet ms",verdana,arial,sans-serif;font-size:16px;}#mermaid-1630577573911 g.classGroup text{fill:#9370DB;fill:#131300;stroke:none;font-family:"trebuchet ms",verdana,arial,sans-serif;font-size:10px;}#mermaid-1630577573911 g.classGroup text .title{font-weight:bolder;}#mermaid-1630577573911 .classTitle{font-weight:bolder;}#mermaid-1630577573911 .node rect,#mermaid-1630577573911 .node circle,#mermaid-1630577573911 .node ellipse,#mermaid-1630577573911 .node polygon,#mermaid-1630577573911 .node path{fill:#ECECFF;stroke:#9370DB;stroke-width:1px;}#mermaid-1630577573911 .divider{stroke:#9370DB;stroke:1;}#mermaid-1630577573911 g.clickable{cursor:pointer;}#mermaid-1630577573911 g.classGroup rect{fill:#ECECFF;stroke:#9370DB;}#mermaid-1630577573911 g.classGroup line{stroke:#9370DB;stroke-width:1;}#mermaid-1630577573911 .classLabel .box{stroke:none;stroke-width:0;fill:#ECECFF;opacity:0.5;}#mermaid-1630577573911 .classLabel .label{fill:#9370DB;font-size:10px;}#mermaid-1630577573911 .relation{stroke:#333333;stroke-width:1;fill:none;}#mermaid-1630577573911 .dashed-line{stroke-dasharray:3;}#mermaid-1630577573911 #compositionStart,#mermaid-1630577573911 .composition{fill:#333333 !important;stroke:#333333 !important;stroke-width:1;}#mermaid-1630577573911 #compositionEnd,#mermaid-1630577573911 .composition{fill:#333333 !important;stroke:#333333 !important;stroke-width:1;}#mermaid-1630577573911 #dependencyStart,#mermaid-1630577573911 .dependency{fill:#333333 !important;stroke:#333333 !important;stroke-width:1;}#mermaid-1630577573911 #dependencyStart,#mermaid-1630577573911 .dependency{fill:#333333 !important;stroke:#333333 !important;stroke-width:1;}#mermaid-1630577573911 #extensionStart,#mermaid-1630577573911 .extension{fill:#333333 !important;stroke:#333333 !important;stroke-width:1;}#mermaid-1630577573911 #extensionEnd,#mermaid-1630577573911 .extension{fill:#333333 !important;stroke:#333333 !important;stroke-width:1;}#mermaid-1630577573911 #aggregationStart,#mermaid-1630577573911 .aggregation{fill:#ECECFF !important;stroke:#333333 !important;stroke-width:1;}#mermaid-1630577573911 #aggregationEnd,#mermaid-1630577573911 .aggregation{fill:#ECECFF !important;stroke:#333333 !important;stroke-width:1;}#mermaid-1630577573911 .edgeTerminals{font-size:11px;}#mermaid-1630577573911:root{--mermaid-font-family:"trebuchet ms",verdana,arial,sans-serif;}#mermaid-1630577573911 class{fill:apa;}</style><g></g><defs><marker id="extensionStart" class="extension" refX="0" refY="7" markerWidth="190" markerHeight="240" orient="auto"><path d="M 1,7 L18,13 V 1 Z"></path></marker></defs><defs><marker id="extensionEnd" refX="19" refY="7" markerWidth="20" markerHeight="28" orient="auto"><path d="M 1,1 V 13 L18,7 Z"></path></marker></defs><defs><marker id="compositionStart" class="extension" refX="0" refY="7" markerWidth="190" markerHeight="240" orient="auto"><path d="M 18,7 L9,13 L1,7 L9,1 Z"></path></marker></defs><defs><marker id="compositionEnd" refX="19" refY="7" markerWidth="20" markerHeight="28" orient="auto"><path d="M 18,7 L9,13 L1,7 L9,1 Z"></path></marker></defs><defs><marker id="aggregationStart" class="extension" refX="0" refY="7" markerWidth="190" markerHeight="240" orient="auto"><path d="M 18,7 L9,13 L1,7 L9,1 Z"></path></marker></defs><defs><marker id="aggregationEnd" refX="19" refY="7" markerWidth="20" markerHeight="28" orient="auto"><path d="M 18,7 L9,13 L1,7 L9,1 Z"></path></marker></defs><defs><marker id="dependencyStart" class="extension" refX="0" refY="7" markerWidth="190" markerHeight="240" orient="auto"><path d="M 5,7 L9,13 L1,7 L9,1 Z"></path></marker></defs><defs><marker id="dependencyEnd" refX="19" refY="7" markerWidth="20" markerHeight="28" orient="auto"><path d="M 18,7 L9,13 L14,7 L9,1 Z"></path></marker></defs><g id="classid-CustomerSystemApplication-0" class="classGroup" transform="translate(0,35 )"><rect x="0" y="0" width="274" height="58" class=" "></rect><text y="15" x="0"><tspan x="74.5">«@SpringBootApplication»</tspan><tspan class="title" dy="10" x="67.5">CustomerSystemApplication</tspan></text><line x1="0" y1="32" y2="32" x2="274"></line><text x="5" y="42" fill="white" class="classText"></text><line x1="0" y1="37" y2="37" x2="274"></line><text x="5" y="52" fill="white" class="classText"><tspan x="5">+main() : void</tspan></text></g><g id="classid-LoadDatabase-1" class="classGroup" transform="translate(50.5,391.5 )"><rect x="0" y="0" width="289" height="57" class=" "></rect><text y="15" x="0"><tspan x="102.5">«@Configuration»</tspan><tspan class="title" dy="10" x="109.5">LoadDatabase</tspan></text><line x1="0" y1="31" y2="31" x2="289"></line><text x="5" y="41" fill="white" class="classText"></text><line x1="0" y1="36" y2="36" x2="289"></line><text x="5" y="51" fill="white" class="classText"><tspan x="5">+initDatabase(CustomerRepository) : CommandLineRunner</tspan></text></g><g id="classid-Customer-2" class="classGroup" transform="translate(336.5,178 )"><rect x="0" y="0" width="192" height="128" class=" "></rect><text y="15" x="0"><tspan x="72">«@Entity»</tspan><tspan class="title" dy="10" x="72.5">Customer</tspan></text><line x1="0" y1="31" y2="31" x2="192"></line><text x="5" y="41" fill="white" class="classText"><tspan x="5">+Long «@Id»</tspan><tspan x="5" dy="10">+String companyName</tspan><tspan x="5" dy="10">+String address</tspan><tspan x="5" dy="10">+String country</tspan><tspan x="5" dy="10">+Contact contact</tspan></text><line x1="0" y1="87" y2="87" x2="192"></line><text x="5" y="102" fill="white" class="classText"><tspan x="5">+Customer() : void</tspan><tspan x="5" dy="10">+Customer(String, String, String) : void</tspan><tspan x="5" dy="10">+toString() : String</tspan></text></g><g id="classid-Contact-3" class="classGroup" transform="translate(324,0 )"><rect x="0" y="0" width="217" height="128" class=" "></rect><text y="15" x="0"><tspan x="84.5">«@Entity»</tspan><tspan class="title" dy="10" x="89.5">Contact</tspan></text><line x1="0" y1="31" y2="31" x2="217"></line><text x="5" y="41" fill="white" class="classText"><tspan x="5">+Long «@Id»</tspan><tspan x="5" dy="10">+String name</tspan><tspan x="5" dy="10">+String phone</tspan><tspan x="5" dy="10">+String email</tspan><tspan x="5" dy="10">+String position</tspan></text><line x1="0" y1="87" y2="87" x2="217"></line><text x="5" y="102" fill="white" class="classText"><tspan x="5">+Contact() : void</tspan><tspan x="5" dy="10">+Contact(String, String, String, String) : void</tspan><tspan x="5" dy="10">+toString() : String</tspan></text></g><g id="classid-CustomerController-4" class="classGroup" transform="translate(500.75,356 )"><rect x="0" y="0" width="253" height="128" class=" "></rect><text y="15" x="0"><tspan x="83">«@RestController»</tspan><tspan class="title" dy="10" x="79">CustomerController</tspan></text><line x1="0" y1="31" y2="31" x2="253"></line><text x="5" y="41" fill="white" class="classText"><tspan x="5">-CustomerService customerService</tspan></text><line x1="0" y1="47" y2="47" x2="253"></line><text x="5" y="62" fill="white" class="classText"><tspan x="5">+CustomerController() : void</tspan><tspan x="5" dy="10">+createCustomer(Customer) : Customer</tspan><tspan x="5" dy="10">+getCustomers()</tspan><tspan x="5" dy="10">+getCustomerById(Long) : Customer</tspan><tspan x="5" dy="10">+updateCustomerById(Long, Customer) : Customer</tspan><tspan x="5" dy="10">+deleteCustomerById(Long) : void</tspan><tspan x="5" dy="10">+setCustomerRepository(CustomerService) : void</tspan></text></g><g id="classid-CustomerService-5" class="classGroup" transform="translate(419,534 )"><rect x="0" y="0" width="255" height="118" class=" "></rect><text y="15" x="0"><tspan x="99.5">«@Service»</tspan><tspan class="title" dy="10" x="85">CustomerService</tspan></text><line x1="0" y1="31" y2="31" x2="255"></line><text x="5" y="41" fill="white" class="classText"><tspan x="5">-CustomerRepository customerRepository</tspan></text><line x1="0" y1="47" y2="47" x2="255"></line><text x="5" y="62" fill="white" class="classText"><tspan x="5">+CustomerServiceImpl() : void</tspan><tspan x="5" dy="10">+createCustomer(Customer) : Customer</tspan><tspan x="5" dy="10">+getCustomerById(Long) : Customer</tspan><tspan x="5" dy="10">+deleteCustomerById(Long) : void</tspan><tspan x="5" dy="10">+updateCustomerById(Long, Customer) : Customer</tspan><tspan x="5" dy="10">+setCustomerRepository(CustomerRepository) : void</tspan></text></g><g id="classid-CustomerRepository-6" class="classGroup" transform="translate(416.5,702 )"><rect x="0" y="0" width="163" height="41" class=" "></rect><text y="15" x="0"><tspan x="55">«Interface»</tspan><tspan class="title" dy="10" x="31.5">CustomerRepository</tspan></text><line x1="0" y1="32" y2="32" x2="163"></line><text x="5" y="42" fill="white" class="classText"></text><line x1="0" y1="37" y2="37" x2="163"></line><text x="5" y="52" fill="white" class="classText"></text></g><g id="classid-JpaRepository-7" class="classGroup" transform="translate(431,793 )"><rect x="0" y="0" width="134" height="41" class=" "></rect><text y="15" x="0"><tspan x="40.5">«Interface»</tspan><tspan class="title" dy="10" x="31.5">JpaRepository</tspan></text><line x1="0" y1="32" y2="32" x2="134"></line><text x="5" y="42" fill="white" class="classText"></text><line x1="0" y1="37" y2="37" x2="134"></line><text x="5" y="52" fill="white" class="classText"></text></g><path d="M498,743L498,747.1666666666666C498,751.3333333333334,498,759.6666666666666,498,768C498,776.3333333333334,498,784.6666666666666,498,788.8333333333334L498,793" id="edge0" class="relation" marker-end="url(#dependencyEnd)"></path><g class="classLabel"><rect class="box" x="400" y="756.5" width="196" height="16"></rect><text class="label" x="498" y="768" fill="red" text-anchor="middle">extends JpaRepository&lt;Customer, Long&gt;</text></g><path d="M336.5,277.97473684210524L312.9166666666667,286.8122807017544C289.3333333333333,295.6498245614035,242.16666666666666,313.32491228070177,218.58333333333334,332.2457894736842C195,351.1666666666667,195,371.3333333333333,195,381.4166666666667L195,391.5" id="edge1" class="relation dashed-line" marker-start="url(#dependencyStart)"></path><g class="classLabel"><rect class="box" x="205.421875" y="303.59375" width="64.015625" height="16.015625"></rect><text class="label" x="237.4235923978767" y="315.10231695405884" fill="red" text-anchor="middle">Dependency</text></g><path d="M390.79213483146066,306L388.07677902621725,310.1666666666667C385.3614232209738,314.3333333333333,379.9307116104869,322.6666666666667,377.21535580524346,341.6666666666667C374.5,360.6666666666667,374.5,390.3333333333333,374.5,420C374.5,449.6666666666667,374.5,479.3333333333333,374.5,508.1666666666667C374.5,537,374.5,565,374.5,593C374.5,621,374.5,649,385.8095238095238,667.1666666666666C397.11904761904765,685.3333333333334,419.73809523809524,693.6666666666666,431.04761904761904,697.8333333333334L442.35714285714283,702" id="edge2" class="relation dashed-line" marker-start="url(#dependencyStart)"></path><g class="classLabel"><rect class="box" x="342.5" y="513.734375" width="64" height="16.015625"></rect><text class="label" x="374.5" y="525.2378909441862" fill="red" text-anchor="middle">Dependency</text></g><path d="M456.41011235955057,306L457.9667602996255,310.1666666666667C459.52340823970036,314.3333333333333,462.6367041198502,322.6666666666667,464.1933520599251,341.6666666666667C465.75,360.6666666666667,465.75,390.3333333333333,465.75,420C465.75,449.6666666666667,465.75,479.3333333333333,469.7554563492063,498.3333333333333C473.7609126984127,517.3333333333334,481.77182539682536,525.6666666666666,485.77728174603175,529.8333333333334L489.7827380952381,534" id="edge3" class="relation dashed-line" marker-start="url(#dependencyStart)"></path><g class="classLabel"><rect class="box" x="433.75" y="412.484375" width="64" height="16.015625"></rect><text class="label" x="465.75" y="423.9952119675296" fill="red" text-anchor="middle">Dependency</text></g><path d="M528.5,285.8716302952503L544.9583333333334,293.39302524604193C561.4166666666666,300.91442019683353,594.3333333333334,315.95721009841674,610.7916666666666,327.645271715875C627.25,339.3333333333333,627.25,347.6666666666667,627.25,351.8333333333333L627.25,356" id="edge4" class="relation dashed-line" marker-start="url(#dependencyStart)"></path><g class="classLabel"><rect class="box" x="557.234375" y="302.125" width="64.015625" height="16.015625"></rect><text class="label" x="589.2440615454905" y="313.63143249062205" fill="red" text-anchor="middle">Dependency</text></g><path d="M627.25,484L627.25,488.1666666666667C627.25,492.3333333333333,627.25,500.6666666666667,623.2445436507936,509C619.2390873015873,517.3333333333334,611.2281746031746,525.6666666666666,607.2227182539683,529.8333333333334L603.2172619047619,534" id="edge5" class="relation dashed-line" marker-end="url(#dependencyEnd)"></path><g class="classLabel"><rect class="box" x="582.890625" y="500.984375" width="82.015625" height="16.015625"></rect><text class="label" x="623.896417877854" y="512.488556015607" fill="red" text-anchor="middle">Has reference to</text></g><path d="M546.5,652L546.5,656.1666666666666C546.5,660.3333333333334,546.5,668.6666666666666,542.058608058608,677C537.6172161172161,685.3333333333334,528.7344322344322,693.6666666666666,524.2930402930402,697.8333333333334L519.8516483516484,702" id="edge6" class="relation dashed-line" marker-end="url(#dependencyEnd)"></path><g class="classLabel"><rect class="box" x="501.28125" y="669.4375" width="82.015625" height="16.015625"></rect><text class="label" x="542.2921078505701" y="680.9476101608053" fill="red" text-anchor="middle">Has reference to</text></g><path d="M432.5,128L432.5,132.16666666666666C432.5,136.33333333333334,432.5,144.66666666666666,432.5,153C432.5,161.33333333333334,432.5,169.66666666666666,432.5,173.83333333333334L432.5,178" id="edge7" class="relation" marker-end="url(#aggregationEnd)"></path><g class="classLabel"><rect class="box" x="403" y="141.5" width="59" height="16"></rect><text class="label" x="432.5" y="153" fill="red" text-anchor="middle">has contact</text></g></svg>