<svg id="mermaid-1630579606240" width="100%" xmlns="http://www.w3.org/2000/svg" xmlns:xlink="http://www.w3.org/1999/xlink" height="844" style="max-width: 746px;" viewBox="-20 -20 746 844"><style>#mermaid-1630579606240{font-family:"trebuchet ms",verdana,arial,sans-serif;font-size:16px;fill:#333;}#mermaid-1630579606240 .error-icon{fill:#552222;}#mermaid-1630579606240 .error-text{fill:#552222;stroke:#552222;}#mermaid-1630579606240 .edge-thickness-normal{stroke-width:2px;}#mermaid-1630579606240 .edge-thickness-thick{stroke-width:3.5px;}#mermaid-1630579606240 .edge-pattern-solid{stroke-dasharray:0;}#mermaid-1630579606240 .edge-pattern-dashed{stroke-dasharray:3;}#mermaid-1630579606240 .edge-pattern-dotted{stroke-dasharray:2;}#mermaid-1630579606240 .marker{fill:#333333;stroke:#333333;}#mermaid-1630579606240 .marker.cross{stroke:#333333;}#mermaid-1630579606240 svg{font-family:"trebuchet ms",verdana,arial,sans-serif;font-size:16px;}#mermaid-1630579606240 g.classGroup text{fill:#9370DB;fill:#131300;stroke:none;font-family:"trebuchet ms",verdana,arial,sans-serif;font-size:10px;}#mermaid-1630579606240 g.classGroup text .title{font-weight:bolder;}#mermaid-1630579606240 .classTitle{font-weight:bolder;}#mermaid-1630579606240 .node rect,#mermaid-1630579606240 .node circle,#mermaid-1630579606240 .node ellipse,#mermaid-1630579606240 .node polygon,#mermaid-1630579606240 .node path{fill:#ECECFF;stroke:#9370DB;stroke-width:1px;}#mermaid-1630579606240 .divider{stroke:#9370DB;stroke:1;}#mermaid-1630579606240 g.clickable{cursor:pointer;}#mermaid-1630579606240 g.classGroup rect{fill:#ECECFF;stroke:#9370DB;}#mermaid-1630579606240 g.classGroup line{stroke:#9370DB;stroke-width:1;}#mermaid-1630579606240 .classLabel .box{stroke:none;stroke-width:0;fill:#ECECFF;opacity:0.5;}#mermaid-1630579606240 .classLabel .label{fill:#9370DB;font-size:10px;}#mermaid-1630579606240 .relation{stroke:#333333;stroke-width:1;fill:none;}#mermaid-1630579606240 .dashed-line{stroke-dasharray:3;}#mermaid-1630579606240 #compositionStart,#mermaid-1630579606240 .composition{fill:#333333 !important;stroke:#333333 !important;stroke-width:1;}#mermaid-1630579606240 #compositionEnd,#mermaid-1630579606240 .composition{fill:#333333 !important;stroke:#333333 !important;stroke-width:1;}#mermaid-1630579606240 #dependencyStart,#mermaid-1630579606240 .dependency{fill:#333333 !important;stroke:#333333 !important;stroke-width:1;}#mermaid-1630579606240 #dependencyStart,#mermaid-1630579606240 .dependency{fill:#333333 !important;stroke:#333333 !important;stroke-width:1;}#mermaid-1630579606240 #extensionStart,#mermaid-1630579606240 .extension{fill:#333333 !important;stroke:#333333 !important;stroke-width:1;}#mermaid-1630579606240 #extensionEnd,#mermaid-1630579606240 .extension{fill:#333333 !important;stroke:#333333 !important;stroke-width:1;}#mermaid-1630579606240 #aggregationStart,#mermaid-1630579606240 .aggregation{fill:#ECECFF !important;stroke:#333333 !important;stroke-width:1;}#mermaid-1630579606240 #aggregationEnd,#mermaid-1630579606240 .aggregation{fill:#ECECFF !important;stroke:#333333 !important;stroke-width:1;}#mermaid-1630579606240 .edgeTerminals{font-size:11px;}#mermaid-1630579606240:root{--mermaid-font-family:"trebuchet ms",verdana,arial,sans-serif;}#mermaid-1630579606240 class{fill:apa;}</style><g></g><defs><marker id="extensionStart" class="extension" refX="0" refY="7" markerWidth="190" markerHeight="240" orient="auto"><path d="M 1,7 L18,13 V 1 Z"></path></marker></defs><defs><marker id="extensionEnd" refX="19" refY="7" markerWidth="20" markerHeight="28" orient="auto"><path d="M 1,1 V 13 L18,7 Z"></path></marker></defs><defs><marker id="compositionStart" class="extension" refX="0" refY="7" markerWidth="190" markerHeight="240" orient="auto"><path d="M 18,7 L9,13 L1,7 L9,1 Z"></path></marker></defs><defs><marker id="compositionEnd" refX="19" refY="7" markerWidth="20" markerHeight="28" orient="auto"><path d="M 18,7 L9,13 L1,7 L9,1 Z"></path></marker></defs><defs><marker id="aggregationStart" class="extension" refX="0" refY="7" markerWidth="190" markerHeight="240" orient="auto"><path d="M 18,7 L9,13 L1,7 L9,1 Z"></path></marker></defs><defs><marker id="aggregationEnd" refX="19" refY="7" markerWidth="20" markerHeight="28" orient="auto"><path d="M 18,7 L9,13 L1,7 L9,1 Z"></path></marker></defs><defs><marker id="dependencyStart" class="extension" refX="0" refY="7" markerWidth="190" markerHeight="240" orient="auto"><path d="M 5,7 L9,13 L1,7 L9,1 Z"></path></marker></defs><defs><marker id="dependencyEnd" refX="19" refY="7" markerWidth="20" markerHeight="28" orient="auto"><path d="M 18,7 L9,13 L14,7 L9,1 Z"></path></marker></defs><g id="classid-ProductSystemApplication-0" class="classGroup" transform="translate(0,25 )"><rect x="0" y="0" width="265" height="58" class=" "></rect><text y="15" x="0"><tspan x="70">«@SpringBootApplication»</tspan><tspan class="title" dy="10" x="67.5">ProductSystemApplication</tspan></text><line x1="0" y1="32" y2="32" x2="265"></line><text x="5" y="42" fill="white" class="classText"></text><line x1="0" y1="37" y2="37" x2="265"></line><text x="5" y="52" fill="white" class="classText"><tspan x="5">+main() : void</tspan></text></g><g id="classid-LoadDatabase-1" class="classGroup" transform="translate(39.75,371.5 )"><rect x="0" y="0" width="281" height="57" class=" "></rect><text y="15" x="0"><tspan x="98.5">«@Configuration»</tspan><tspan class="title" dy="10" x="105.5">LoadDatabase</tspan></text><line x1="0" y1="31" y2="31" x2="281"></line><text x="5" y="41" fill="white" class="classText"></text><line x1="0" y1="36" y2="36" x2="281"></line><text x="5" y="51" fill="white" class="classText"><tspan x="5">+initDatabase(ProductRepository) : CommandLineRunner</tspan></text></g><g id="classid-Product-2" class="classGroup" transform="translate(300.5,158 )"><rect x="0" y="0" width="206" height="128" class=" "></rect><text y="15" x="0"><tspan x="79">«@Entity»</tspan><tspan class="title" dy="10" x="83.5">Product</tspan></text><line x1="0" y1="31" y2="31" x2="206"></line><text x="5" y="41" fill="white" class="classText"><tspan x="5">+Long «@Id»</tspan><tspan x="5" dy="10">+String productCategory</tspan><tspan x="5" dy="10">+String name</tspan><tspan x="5" dy="10">+double price</tspan><tspan x="5" dy="10">+int stockQuantity</tspan></text><line x1="0" y1="87" y2="87" x2="206"></line><text x="5" y="102" fill="white" class="classText"><tspan x="5">+Product() : void</tspan><tspan x="5" dy="10">+Product(String, String, double, int) : void</tspan><tspan x="5" dy="10">+toString() : String</tspan></text></g><g id="classid-ProductDetail-3" class="classGroup" transform="translate(315,0 )"><rect x="0" y="0" width="177" height="108" class=" "></rect><text y="15" x="0"><tspan x="64.5">«@Entity»</tspan><tspan class="title" dy="10" x="55.5">ProductDetail</tspan></text><line x1="0" y1="31" y2="31" x2="177"></line><text x="5" y="41" fill="white" class="classText"><tspan x="5">+Long «@Id»</tspan><tspan x="5" dy="10">+String decription</tspan><tspan x="5" dy="10">+String comment</tspan></text><line x1="0" y1="67" y2="67" x2="177"></line><text x="5" y="82" fill="white" class="classText"><tspan x="5">+ProductDetail() : void</tspan><tspan x="5" dy="10">+ProductDetail(String, String) : void</tspan><tspan x="5" dy="10">+toString() : String</tspan></text></g><g id="classid-ProductController-4" class="classGroup" transform="translate(478,336 )"><rect x="0" y="0" width="228" height="128" class=" "></rect><text y="15" x="0"><tspan x="70.5">«@RestController»</tspan><tspan class="title" dy="10" x="71">ProductController</tspan></text><line x1="0" y1="31" y2="31" x2="228"></line><text x="5" y="41" fill="white" class="classText"><tspan x="5">-ProductService ProductService</tspan></text><line x1="0" y1="47" y2="47" x2="228"></line><text x="5" y="62" fill="white" class="classText"><tspan x="5">+ProductController() : void</tspan><tspan x="5" dy="10">+createProduct(Product) : Product</tspan><tspan x="5" dy="10">+getProducts()</tspan><tspan x="5" dy="10">+getProductById(Long) : Product</tspan><tspan x="5" dy="10">+updateProductById(Long, Product) : Product</tspan><tspan x="5" dy="10">+deleteProductById(Long) : void</tspan><tspan x="5" dy="10">+setProductRepository(ProductService) : void</tspan></text></g><g id="classid-ProductService-5" class="classGroup" transform="translate(398,514 )"><rect x="0" y="0" width="239" height="118" class=" "></rect><text y="15" x="0"><tspan x="91.5">«@Service»</tspan><tspan class="title" dy="10" x="81.5">ProductService</tspan></text><line x1="0" y1="31" y2="31" x2="239"></line><text x="5" y="41" fill="white" class="classText"><tspan x="5">-ProductRepository ProductRepository</tspan></text><line x1="0" y1="47" y2="47" x2="239"></line><text x="5" y="62" fill="white" class="classText"><tspan x="5">+ProductServiceImpl() : void</tspan><tspan x="5" dy="10">+createProduct(Product) : Product</tspan><tspan x="5" dy="10">+getProductById(Long) : Product</tspan><tspan x="5" dy="10">+deleteProductById(Long) : void</tspan><tspan x="5" dy="10">+updateProductById(Long, Product) : Product</tspan><tspan x="5" dy="10">+setProductRepository(ProductRepository) : void</tspan></text></g><g id="classid-ProductRepository-6" class="classGroup" transform="translate(400,682 )"><rect x="0" y="0" width="154" height="41" class=" "></rect><text y="15" x="0"><tspan x="50.5">«Interface»</tspan><tspan class="title" dy="10" x="31.5">ProductRepository</tspan></text><line x1="0" y1="32" y2="32" x2="154"></line><text x="5" y="42" fill="white" class="classText"></text><line x1="0" y1="37" y2="37" x2="154"></line><text x="5" y="52" fill="white" class="classText"></text></g><g id="classid-JpaRepository-7" class="classGroup" transform="translate(436.5,773 )"><rect x="0" y="0" width="81" height="31" class=" "></rect><text y="15" x="0"><tspan class="title" x="5">JpaRepository</tspan></text><line x1="0" y1="22" y2="22" x2="81"></line><text x="5" y="32" fill="white" class="classText"></text><line x1="0" y1="27" y2="27" x2="81"></line><text x="5" y="42" fill="white" class="classText"></text></g><path d="M477,723L477,727.1666666666666C477,731.3333333333334,477,739.6666666666666,477,748C477,756.3333333333334,477,764.6666666666666,477,768.8333333333334L477,773" id="edge0" class="relation" marker-end="url(#dependencyEnd)"></path><g class="classLabel"><rect class="box" x="382.5" y="736.5" width="189" height="16"></rect><text class="label" x="477" y="748" fill="red" text-anchor="middle">extends JpaRepository&lt;Product, Long&gt;</text></g><path d="M300.5,263.0615901455767L280.4583333333333,271.05132512131394C260.4166666666667,279.0410600970511,220.33333333333334,295.0205300485256,200.29166666666666,313.09359835759614C180.25,331.1666666666667,180.25,351.3333333333333,180.25,361.4166666666667L180.25,371.5" id="edge1" class="relation dashed-line" marker-start="url(#dependencyStart)"></path><g class="classLabel"><rect class="box" x="180.265625" y="286.71875" width="64.015625" height="16.015625"></rect><text class="label" x="212.27557841858246" y="298.2328041242829" fill="red" text-anchor="middle">Dependency</text></g><path d="M369.1629213483146,286L366.9274344569289,290.1666666666667C364.6919475655431,294.3333333333333,360.2209737827716,302.6666666666667,357.9854868913858,321.6666666666667C355.75,340.6666666666667,355.75,370.3333333333333,355.75,400C355.75,429.6666666666667,355.75,459.3333333333333,355.75,488.1666666666667C355.75,517,355.75,545,355.75,573C355.75,601,355.75,629,366.8534798534799,647.1666666666666C377.9569597069597,665.3333333333334,400.1639194139195,673.6666666666666,411.26739926739924,677.8333333333334L422.3708791208791,682" id="edge2" class="relation dashed-line" marker-start="url(#dependencyStart)"></path><g class="classLabel"><rect class="box" x="323.75" y="493.890625" width="64" height="16.015625"></rect><text class="label" x="355.75" y="505.3931436917981" fill="red" text-anchor="middle">Dependency</text></g><path d="M431.90449438202245,286L433.75374531835206,290.1666666666667C435.6029962546816,294.3333333333333,439.30149812734084,302.6666666666667,441.15074906367045,321.6666666666667C443,340.6666666666667,443,370.3333333333333,443,400C443,429.6666666666667,443,459.3333333333333,446.69543650793656,478.3333333333333C450.390873015873,497.3333333333333,457.781746031746,505.6666666666667,461.4771825396826,509.8333333333333L465.17261904761904,514" id="edge3" class="relation dashed-line" marker-start="url(#dependencyStart)"></path><g class="classLabel"><rect class="box" x="411" y="391.53125" width="64" height="16.015625"></rect><text class="label" x="443" y="403.0321678878928" fill="red" text-anchor="middle">Dependency</text></g><path d="M506.5,270.63129973474804L520.75,277.35941644562337C535,284.0875331564987,563.5,297.54376657824935,577.75,308.43854995579136C592,319.3333333333333,592,327.6666666666667,592,331.8333333333333L592,336" id="edge4" class="relation dashed-line" marker-start="url(#dependencyStart)"></path><g class="classLabel"><rect class="box" x="528.546875" y="284.640625" width="64.015625" height="16.015625"></rect><text class="label" x="560.5534296434472" y="296.15254768311297" fill="red" text-anchor="middle">Dependency</text></g><path d="M592,464L592,468.1666666666667C592,472.3333333333333,592,480.6666666666667,588.3045634920635,489C584.609126984127,497.3333333333333,577.218253968254,505.6666666666667,573.5228174603175,509.8333333333333L569.827380952381,514" id="edge5" class="relation dashed-line" marker-end="url(#dependencyEnd)"></path><g class="classLabel"><rect class="box" x="548.203125" y="480.640625" width="82.015625" height="16.015625"></rect><text class="label" x="589.2078680279008" y="492.14817564639367" fill="red" text-anchor="middle">Has reference to</text></g><path d="M517.5,632L517.5,636.1666666666666C517.5,640.3333333333334,517.5,648.6666666666666,513.7912087912088,657C510.0824175824176,665.3333333333334,502.6648351648352,673.6666666666666,498.95604395604397,677.8333333333334L495.24725274725273,682" id="edge6" class="relation dashed-line" marker-end="url(#dependencyEnd)"></path><g class="classLabel"><rect class="box" x="473.671875" y="648.65625" width="82.015625" height="16.015625"></rect><text class="label" x="514.6845409464995" y="660.1630465909697" fill="red" text-anchor="middle">Has reference to</text></g><path d="M403.5,108L403.5,112.16666666666667C403.5,116.33333333333333,403.5,124.66666666666667,403.5,133C403.5,141.33333333333334,403.5,149.66666666666666,403.5,153.83333333333334L403.5,158" id="edge7" class="relation" marker-end="url(#aggregationEnd)"></path><g class="classLabel"><rect class="box" x="360" y="121.5" width="87" height="16"></rect><text class="label" x="403.5" y="133" fill="red" text-anchor="middle">has ProductDetail</text></g></svg>